<svg width="17" height="18" viewBox="0 0 17 18" fill="none" xmlns="http://www.w3.org/2000/svg">
<path d="M14 4H17L13 0L9 4H12V18H14V4ZM4 18H0V16H4V15H2C1.46957 15 0.960859 14.7893 0.585786 14.4142C0.210714 14.0391 0 13.5304 0 13V12C0 10.9 0.9 10 2 10H4C4.53043 10 5.03914 10.2107 5.41421 10.5858C5.78929 10.9609 6 11.4696 6 12V16C6 17.11 5.11 18 4 18ZM4 12H2V13H4V12ZM2 0H4C4.53043 0 5.03914 0.210714 5.41421 0.585786C5.78929 0.960859 6 1.46957 6 2V6C6 7.11 5.11 8 4 8H2C1.46957 8 0.960859 7.78929 0.585786 7.41421C0.210714 7.03914 0 6.53043 0 6V2C0 0.9 0.9 0 2 0ZM2 6H4V2H2V6Z" fill="#323070"/>
</svg>
